<!DOCTYPE svg PUBLIC "-//W3C//DTD SVG 1.1//EN" "http://www.w3.org/Graphics/SVG/1.1/DTD/svg11.dtd">
<!-- Uploaded to: SVG Repo, www.svgrepo.com, Transformed by: SVG Repo Mixer Tools -->
<svg fill="#72508c" width="800px" height="800px" viewBox="-6.5 0 32 32" version="1.1" xmlns="http://www.w3.org/2000/svg">
<g id="SVGRepo_bgCarrier" stroke-width="0"/>
<g id="SVGRepo_tracerCarrier" stroke-linecap="round" stroke-linejoin="round"/>
<g id="SVGRepo_iconCarrier"> <title>five</title> <path d="M7.938 4.875l-1.125 6c0.625-0.188 1.313-0.281 2.031-0.281 4.281 0 7.75 3.5 7.75 7.781s-3.469 7.75-7.75 7.75c-3.656 0-6.406-2.5-7.25-5.938h2.281c0.781 2.219 2.531 3.813 5 3.813 3.094 0 5.594-2.5 5.594-5.594 0-3.063-2.5-5.625-5.594-5.625-0.813 0-1.656 0.188-2.531 0.438-0.938 0.25-1.594 0.438-2.438 0.844l2.188-11.438h9.906v2.25h-8.063z"/> </g>
</svg>